<?xml version="1.0" encoding="UTF-8"?>
<svg version="1.1" xmlns="http://www.w3.org/2000/svg" width="500" height="500">
<path d="M0 0 C1.21431762 -0.00444825 1.21431762 -0.00444825 2.4531669 -0.00898635 C3.77878754 0.00149587 3.77878754 0.00149587 5.13118839 0.01218987 C6.54597409 0.01151852 6.54597409 0.01151852 7.98934132 0.01083362 C11.1576522 0.01188601 14.32572591 0.02741113 17.49399662 0.04292107 C19.76230593 0.0467983 22.03061678 0.04984527 24.29892826 0.05212212 C30.46623998 0.06121502 36.63343809 0.08344017 42.8007009 0.10906649 C47.94505024 0.12958967 53.08941036 0.14458006 58.23377758 0.15982616 C69.67424842 0.19413184 81.11464162 0.23786979 92.55504703 0.2889985 C93.58467815 0.29359886 93.58467815 0.29359886 94.6351099 0.29829216 C95.32236836 0.30136454 96.00962681 0.30443691 96.71771128 0.30760239 C107.85912452 0.35689897 119.00048958 0.38626319 130.14198994 0.40657474 C141.58133847 0.42765511 153.02052864 0.46391097 164.45978886 0.51492393 C170.8823849 0.5433159 177.304857 0.56550131 183.72751522 0.57240486 C189.76620347 0.57943997 195.80451244 0.60546769 201.84306431 0.6462326 C204.061433 0.6579664 206.27984961 0.66287992 208.4982481 0.66053772 C211.52264825 0.65840173 214.54590963 0.68068189 217.57015324 0.70921135 C218.89242779 0.69961708 218.89242779 0.69961708 220.24141496 0.68982899 C224.28723686 0.75300062 226.4115895 0.93463912 229.93566322 3.08742905 C233.45620984 6.92065773 233.06046341 10.86527211 233.05460453 15.78190422 C233.05757565 16.55681461 233.06054677 17.33172501 233.06360793 18.13011754 C233.07230127 20.73485196 233.07380371 23.33954046 233.07529545 25.94428825 C233.07992313 27.80851655 233.08494772 29.6727439 233.09034061 31.53697014 C233.10347038 36.60721408 233.10991055 41.67744478 233.11435127 46.74770308 C233.11728072 49.91386119 233.12138525 53.08001567 233.12585545 56.24617195 C233.13953112 66.1480145 233.14919776 76.04984875 233.15305734 85.95170009 C233.15754016 97.39025461 233.17509817 108.82868976 233.20405793 120.26720798 C233.2256554 129.10379402 233.23576056 137.94034642 233.23709846 146.77695858 C233.23814776 152.05717627 233.24408228 157.33728175 233.26191807 162.61747169 C233.27836558 167.58328062 233.28057043 172.5488926 233.27177906 177.51471901 C233.27100694 179.33804157 233.27537442 181.16137459 233.28523731 182.98467064 C233.29790651 185.47249366 233.2921077 187.9596138 233.28165531 190.44743156 C233.29373992 191.53143598 233.29373992 191.53143598 233.30606866 192.63733947 C233.26303504 197.01231184 232.61464696 199.77325213 229.91416264 203.24165154 C225.91774792 205.90592801 222.42043312 205.52839214 217.77942753 205.5158062 C216.83300794 205.52104288 215.88658834 205.52627956 214.91148937 205.53167492 C211.72630308 205.54672919 208.54127666 205.54738126 205.35605717 205.54804802 C203.07803925 205.55566582 200.80002392 205.56409266 198.52201176 205.5732708 C192.32369933 205.59525932 186.12543624 205.60402049 179.92708921 205.60909724 C176.05738613 205.6127355 172.18769607 205.61897275 168.31799793 205.62609863 C157.60523207 205.64555874 146.89248167 205.66206912 136.17969799 205.66497517 C135.49407535 205.66516274 134.80845272 205.66535031 134.10205363 205.66554356 C132.71211457 205.66590981 131.32217551 205.66627351 129.93223645 205.66663467 C129.2422633 205.66681748 128.55229015 205.66700029 127.84140873 205.66718864 C127.15059416 205.66736919 126.45977959 205.66754974 125.74803124 205.66773576 C114.55148967 205.67127828 103.35514033 205.69830524 92.15866543 205.73568653 C80.66517194 205.77375264 69.17180018 205.79269126 57.6782397 205.79343468 C51.22424847 205.79422915 44.77050518 205.8030461 38.31657124 205.83143234 C32.24755784 205.85752778 26.17899947 205.85986565 20.10995579 205.8437767 C17.88026408 205.84195546 15.65054672 205.8487134 13.42091084 205.86459541 C10.38101795 205.88493185 7.34273574 205.87457683 4.30286503 205.85638237 C3.41677559 205.86958234 2.53068615 205.88278231 1.61774552 205.89638227 C-2.81217852 205.83565989 -4.53312516 205.68272211 -8.11013126 202.82823086 C-11.26694996 198.69534796 -11.22600801 195.79153568 -11.20609188 190.75004387 C-11.20694631 189.96837652 -11.20780073 189.18670917 -11.20868105 188.38135493 C-11.21033523 185.74801291 -11.20481548 183.11473383 -11.19936275 180.48139763 C-11.19908084 178.59935317 -11.19923869 176.7173086 -11.19980526 174.83526421 C-11.20009308 169.71363558 -11.19419881 164.59203021 -11.1872313 159.47040701 C-11.18099523 154.1225601 -11.18039376 148.7747127 -11.17920589 143.42686272 C-11.17609333 133.29441592 -11.16788094 123.16197986 -11.1578564 113.0295378 C-11.14669296 101.49645957 -11.14118423 89.96338085 -11.13616097 78.43029857 C-11.12569827 54.70074359 -11.10810027 30.97119816 -11.08583736 7.24165154 C-11.74583736 6.91165154 -12.40583736 6.58165154 -13.08583736 6.24165154 C-13.08583736 5.58165154 -13.08583736 4.92165154 -13.08583736 4.24165154 C-12.34333736 3.95290154 -11.60083736 3.66415154 -10.83583736 3.36665154 C-8.18214832 2.34243282 -8.18214832 2.34243282 -6.1693272 1.18644226 C-3.91020367 0.16200772 -2.46420686 -0.00575486 0 0 Z M26.91416264 25.24165154 C26.90978116 29.46441328 26.90978116 29.46441328 29.00400639 32.67524529 C29.45968998 33.32557732 29.91537357 33.97590935 30.38486576 34.64594841 C30.86890873 35.31690544 31.3529517 35.98786247 31.85166264 36.67915154 C32.77755128 37.99027362 33.70332837 39.30147449 34.62900639 40.61274529 C35.12662479 41.2797747 35.6242432 41.94680412 36.13694096 42.63404655 C37.91416264 45.24165154 37.91416264 45.24165154 39.56528568 48.48512077 C42.99559857 54.89483227 42.99559857 54.89483227 48.75539684 58.9859314 C54.13351925 60.15504555 59.60584323 59.88139222 65.07431889 59.72993279 C66.83265853 59.72812137 68.59101259 59.73205253 70.34932804 59.74145317 C74.95248508 59.75077992 79.55128633 59.68268323 84.15354252 59.59785271 C88.85941972 59.52500694 93.56523237 59.52619055 98.27158451 59.52094841 C107.48719585 59.49987021 116.69990273 59.39691069 125.91416264 59.24165154 C126.24416264 60.23165154 126.57416264 61.22165154 126.91416264 62.24165154 C125.85704803 63.90415001 125.85704803 63.90415001 124.1459589 65.75275993 C123.49254457 66.46143715 122.83913025 67.17011436 122.16591549 67.90026665 C117.89642444 72.33970671 113.56876551 76.71690351 109.2054224 81.06391716 C108.14014895 82.12890798 107.07509676 83.19412015 106.01024723 84.25953484 C103.14108632 87.12898074 100.2688694 89.99534941 97.39606309 92.86114502 C94.38604604 95.8648786 91.37889154 98.8714753 88.37142277 101.87775993 C82.68585813 107.56022591 76.99775092 113.2401396 71.30870908 118.91912413 C64.82784401 125.38878242 58.34984394 131.86130621 51.87207425 138.33406353 C38.5559393 151.63976728 25.23623902 164.94189667 11.91416264 178.24165154 C12.57416264 179.23165154 13.23416264 180.22165154 13.91416264 181.24165154 C16.52744589 181.53613141 18.90413344 181.63292951 21.5196619 181.60241508 C22.71053891 181.60626 22.71053891 181.60626 23.92547405 181.61018258 C26.60045479 181.61514574 29.27487796 181.59858624 31.94980717 181.58222771 C33.86140778 181.58138198 35.77300937 181.58185551 37.68460941 181.58355522 C42.88688909 181.58441872 48.08896279 181.56673564 53.29119444 181.54583335 C58.72311367 181.52712556 64.15503721 181.52532077 69.58698368 181.52175713 C79.8788429 181.51241928 90.17060693 181.487782 100.46242416 181.45770866 C112.17686547 181.4242187 123.89131123 181.40769225 135.60578847 181.39262235 C159.70863271 181.36123394 183.81139235 181.30843971 207.91416264 181.24165154 C208.62640651 179.39149249 208.62640651 179.39149249 208.91416264 177.24165154 C207.10034439 174.94770386 205.33106559 173.02764142 203.2444849 171.00434685 C202.63015598 170.3892878 202.01582706 169.77422874 201.38288212 169.14053154 C199.34373626 167.1048768 197.28743482 165.08751219 195.23056889 163.06977654 C193.81557903 161.66410929 192.40168709 160.25733606 190.98885441 158.84950066 C187.26296011 155.14271919 183.52229596 151.45119424 179.77842045 147.76258659 C175.96246851 143.99773393 172.16058947 140.21872991 168.35752201 136.44087029 C160.89015357 129.02716524 153.40711479 121.62949213 145.91416264 114.24165154 C144.79587036 115.19413668 143.67843691 116.14763021 142.56136417 117.10154533 C141.93900096 117.63241312 141.31663774 118.16328091 140.67541504 118.7102356 C138.53244738 120.57355446 136.51183745 122.53081645 134.51181889 124.54633904 C133.76738529 125.29399529 133.0229517 126.04165154 132.25595951 126.81196404 C131.50379154 127.57251091 130.75162357 128.33305779 129.97666264 129.11665154 C128.80780521 130.29227654 128.80780521 130.29227654 127.61533451 131.49165154 C125.71262179 133.40603734 123.81230093 135.32273187 121.91416264 137.24165154 C122.73916264 138.16977654 123.56416264 139.09790154 124.41416264 140.05415154 C126.91416264 142.86665154 126.91416264 142.86665154 126.91416264 146.24165154 C124.11643614 147.64051478 121.79027371 147.3713975 118.66416264 147.37446404 C117.41635014 147.3757531 116.16853764 147.37704216 114.88291264 147.37837029 C113.57322514 147.3745031 112.26353764 147.37063591 110.91416264 147.36665154 C109.60447514 147.37051872 108.29478764 147.37438591 106.94541264 147.37837029 C105.69760014 147.37708122 104.44978764 147.37579216 103.16416264 147.37446404 C102.01431889 147.37333611 100.86447514 147.37220818 99.67978764 147.37104607 C96.91416264 147.24165154 96.91416264 147.24165154 94.91416264 146.24165154 C95.44942698 142.17762589 97.46968517 140.32498085 100.32433414 137.49763298 C100.78662999 137.03559613 101.24892583 136.57355927 101.72523063 136.09752131 C103.27672772 134.55045075 104.83867188 133.01437569 106.4007349 131.47797966 C107.51483998 130.3712687 108.62825735 129.26386507 109.74103642 128.15582085 C112.13884051 125.7708928 114.54117558 123.39065761 116.94703197 121.01385307 C120.74887236 117.25730312 124.53875419 113.48884418 128.32674503 109.71833611 C137.73631912 100.35585956 147.16096924 91.00859756 156.58994389 81.66566277 C163.91887833 74.40335058 171.24336026 67.13667285 178.55410904 59.85604811 C182.32144904 56.10524432 186.09798801 52.36403071 189.88164437 48.62969017 C192.23042054 46.30750896 194.57088519 43.97708956 196.9090929 41.64427185 C197.99728058 40.56199007 199.08892677 39.48317327 200.18419933 38.40806198 C201.675798 36.94297892 203.15467213 35.46614144 204.63097477 33.98567009 C205.87897783 32.74904247 205.87897783 32.74904247 207.15219307 31.48743248 C209.32567207 29.19289459 209.32567207 29.19289459 208.91416264 25.24165154 C148.85416264 25.24165154 88.79416264 25.24165154 26.91416264 25.24165154 Z " fill="#179B53" transform="translate(139.08583736419678,79.75834846496582)"/>
<path d="M0 0 C7.5066983 -0.39722022 15.00722829 -0.68654111 22.52197266 -0.87890625 C25.07383781 -0.9591068 27.62497342 -1.06811319 30.17431641 -1.20703125 C50.90673071 -2.30801069 50.90673071 -2.30801069 56.1739502 1.62207031 C59.96543591 5.8953069 62.12181962 10.64971176 64 16 C64.43706017 15.26746254 64.43706017 15.26746254 64.88294983 14.52012634 C65.68584433 13.17442993 66.48878917 11.82876357 67.29177856 10.48312378 C68.13981483 9.06152289 68.98700623 7.63941794 69.83374023 6.21704102 C72.88888889 1.11111111 72.88888889 1.11111111 74 0 C76.18639453 -0.07258946 78.37500389 -0.08373783 80.5625 -0.0625 C82.35880859 -0.04896484 82.35880859 -0.04896484 84.19140625 -0.03515625 C85.11824219 -0.02355469 86.04507813 -0.01195312 87 0 C85.65859446 3.68261135 83.99375261 6.69584191 81.77734375 9.921875 C73.97881248 21.67024603 68.65361628 30.67063039 70 45 C65.38 45 60.76 45 56 45 C56.144375 42.710625 56.28875 40.42125 56.4375 38.0625 C56.40541312 24.90955434 47.06561805 13.51287924 40 3 C39.9278125 4.04671875 39.855625 5.0934375 39.78125 6.171875 C38.87779682 10.59879559 37.64757576 12.08299476 34.5 15.25 C33.15615234 16.64605469 33.15615234 16.64605469 31.78515625 18.0703125 C31.32383301 18.54758789 30.86250977 19.02486328 30.38720703 19.51660156 C27.30676229 22.81064983 24.54345614 26.37314581 21.71484375 29.8828125 C20 32 20 32 19 33 C25.93 33.33 32.86 33.66 40 34 C40 37.63 40 41.26 40 45 C26.47 45 12.94 45 -1 45 C-1 36 -1 36 0.65234375 33.3203125 C1.40644531 32.59585938 2.16054687 31.87140625 2.9375 31.125 C6.46403756 27.56503554 9.73710682 23.97327328 12.875 20.0625 C15.16816195 17.20632159 17.40468081 14.59531919 20 12 C13.4 11.67 6.8 11.34 0 11 C0 7.37 0 3.74 0 0 Z " fill="#189A54" transform="translate(132,325)"/>
<path d="M0 0 C12 0 12 0 14.859375 1.8359375 C15.79523438 3.09277344 15.79523438 3.09277344 16.75 4.375 C17.45511719 5.27734375 18.16023438 6.1796875 18.88671875 7.109375 C19.58410156 8.06328125 20.28148437 9.0171875 21 10 C22.51589302 11.87899637 24.03647827 13.75422029 25.5625 15.625 C26.696875 17.06875 27.83125 18.5125 29 20 C29.33 13.4 29.66 6.8 30 0 C34.62 0 39.24 0 44 0 C44 14.85 44 29.7 44 45 C32 45 32 45 29.140625 43.1640625 C28.51671875 42.32617188 27.8928125 41.48828125 27.25 40.625 C26.54488281 39.72265625 25.83976562 38.8203125 25.11328125 37.890625 C24.41589844 36.93671875 23.71851563 35.9828125 23 35 C21.48410698 33.12100363 19.96352173 31.24577971 18.4375 29.375 C17.303125 27.93125 16.16875 26.4875 15 25 C14.67 31.6 14.34 38.2 14 45 C9.38 45 4.76 45 0 45 C0 30.15 0 15.3 0 0 Z " fill="#179B53" transform="translate(221,325)"/>
<path d="M0 0 C4.94301959 3.62548679 8.22757319 7.70537085 10.125 13.55859375 C11.17052483 21.79210182 10.77504433 28.57186108 5.98046875 35.49609375 C1.65066048 40.30901747 -3.6595209 43.36024866 -10.16796875 43.76171875 C-19.49809408 43.87401715 -26.56298296 43.87258978 -33.6875 37.30859375 C-39.56603415 30.83952192 -40.4553818 25.3124657 -40.21875 16.71484375 C-39.53766916 10.46128327 -37.13977592 6.47285755 -32.5625 2.24609375 C-22.94159462 -5.17170514 -10.69763356 -6.21096159 0 0 Z M-22.875 10.55859375 C-25.90287259 13.58646634 -26.62547224 16.31662188 -26.875 20.55859375 C-26.14007683 24.82114813 -25.53319218 26.93331118 -22.375 29.93359375 C-18.55244499 32.41825451 -16.48078585 33.00145777 -11.875 32.55859375 C-7.05616085 30.10193065 -4.56548972 27.72950349 -2.875 22.55859375 C-2.67415017 18.29890371 -3.4045311 15.33150695 -5.625 11.68359375 C-11.20390403 6.41462883 -16.47191262 6.7439885 -22.875 10.55859375 Z " fill="#179B54" transform="translate(310.875,327.44140625)"/>
<path d="M0 0 C6.6825 -0.12375 6.6825 -0.12375 13.5 -0.25 C15.58344727 -0.30462402 15.58344727 -0.30462402 17.70898438 -0.36035156 C24.97124117 -0.42530539 29.88879401 -0.04472117 36 4 C40.71397167 9.07658487 41.34231222 12.39637966 41.2890625 19.16796875 C40.7277739 24.66708008 37.91850676 28.22745481 34 32 C34.5775 32.77085937 35.155 33.54171875 35.75 34.3359375 C36.4925 35.33882813 37.235 36.34171875 38 37.375 C39.11375 38.87160156 39.11375 38.87160156 40.25 40.3984375 C42 43 42 43 42 45 C36.8466523 45.59691286 32.13279236 45.89611767 27 45 C24.43530621 42.6020113 23.11653105 40.43145964 21.58984375 37.28515625 C20.13659102 34.66560129 20.13659102 34.66560129 16.81640625 34.18359375 C15.88699219 34.12300781 14.95757812 34.06242187 14 34 C14 37.63 14 41.26 14 45 C9.38 45 4.76 45 0 45 C0 30.15 0 15.3 0 0 Z M14 11 C14 14.96 14 18.92 14 23 C19.96116417 23.43129096 19.96116417 23.43129096 25.5 21.75 C27.22607074 19.7362508 27.83938771 18.65010275 28 16 C27.00974907 13.33393981 26.5722047 12.28610235 24 11 C22.29297265 10.93003986 20.58331997 10.91559846 18.875 10.9375 C17.26625 10.958125 15.6575 10.97875 14 11 Z " fill="#1B9955" transform="translate(327,325)"/>
<path d="M0 0 C3.3 0 6.6 0 10 0 C10 14.19 10 28.38 10 43 C1 43 1 43 -1.375 41.49609375 C-4.88309897 37.05193953 -7 33.89266706 -7 28 C-6.5625 25.5625 -6.5625 25.5625 -6 24 C-4.68 24 -3.36 24 -2 24 C0.21870993 22.20290436 0.21870993 22.20290436 0.22705078 19.75341797 C0.21657715 18.84221191 0.20610352 17.93100586 0.1953125 16.9921875 C0.18886719 16.00605469 0.18242187 15.01992188 0.17578125 14.00390625 C0.15902344 12.97136719 0.14226562 11.93882812 0.125 10.875 C0.11597656 9.83472656 0.10695312 8.79445313 0.09765625 7.72265625 C0.07403867 5.14834003 0.03816684 2.57414162 0 0 Z " fill="#169C52" transform="translate(253,326)"/>
<path d="M0 0 C0.73956955 -0.00297112 1.47913911 -0.00594224 2.24111986 -0.0090034 C4.72614695 -0.0176943 7.2111259 -0.01919896 9.69616699 -0.02069092 C11.47497155 -0.02531869 13.25377511 -0.0303433 15.03257751 -0.03573608 C19.86922353 -0.04886309 24.70585566 -0.05530524 29.54251671 -0.05974674 C32.5619208 -0.06267603 35.58132109 -0.06678049 38.60072327 -0.07125092 C48.04124099 -0.08492454 57.48175003 -0.09459275 66.92227697 -0.09845281 C77.83278924 -0.10293812 88.74317651 -0.1205085 99.65365076 -0.1494534 C108.08001798 -0.17103521 116.50634993 -0.18115515 124.9327445 -0.18249393 C129.96921433 -0.18354416 135.00556663 -0.18949856 140.04200745 -0.20731354 C144.77635433 -0.22373455 149.51049457 -0.22597896 154.2448597 -0.21717453 C155.98516962 -0.21640103 157.72549038 -0.22078781 159.46577263 -0.23063278 C161.83607385 -0.24325872 164.20563273 -0.2375273 166.57592773 -0.22705078 C167.26940449 -0.23510719 167.96288125 -0.24316359 168.67737246 -0.25146413 C171.51526834 -0.22199553 173.35772697 -0.16739611 175.70355988 1.51106644 C176.78796387 3.14044189 176.78796387 3.14044189 177.35046387 5.57794189 C176.78796387 8.14044189 176.78796387 8.14044189 174.18249512 9.87872314 C173.3678479 10.39221313 173.3678479 10.39221313 172.53674316 10.91607666 C169.30289585 13.1801761 166.65518748 16.06756464 163.91296387 18.89044189 C163.31999512 19.49243408 162.72702637 20.09442627 162.11608887 20.71466064 C160.66873263 22.18536134 159.22768757 23.6622686 157.78796387 25.14044189 C157.12796387 24.81044189 156.46796387 24.48044189 155.78796387 24.14044189 C156.32800049 23.61611572 156.86803711 23.09178955 157.42443848 22.55157471 C159.86594437 20.17241521 162.29575343 17.78164371 164.72546387 15.39044189 C165.57560059 14.56544189 166.4257373 13.74044189 167.30163574 12.89044189 C168.11052246 12.09122314 168.91940918 11.29200439 169.75280762 10.46856689 C170.50167236 9.7354126 171.25053711 9.0022583 172.02209473 8.24688721 C174.11832552 6.05826538 174.11832552 6.05826538 174.78796387 2.14044189 C114.72796387 2.47044189 54.66796387 2.80044189 -7.21203613 3.14044189 C-6.55203613 5.12044189 -5.89203613 7.10044189 -5.21203613 9.14044189 C-7.68703613 8.15044189 -7.68703613 8.15044189 -10.21203613 7.14044189 C-10.21203613 5.16044189 -10.21203613 3.18044189 -10.21203613 1.14044189 C-6.73231921 -0.01946375 -3.61904205 -0.0045219 0 0 Z " fill="#308C5C" transform="translate(173.2120361328125,102.85955810546875)"/>
<path d="M0 0 C12 0 12 0 15.25 3 C15.8275 3.99 16.405 4.98 17 6 C16.01 6 15.02 6 14 6 C14 5.34 14 4.68 14 4 C13.34 4 12.68 4 12 4 C12 3.34 12 2.68 12 2 C8.7 2 5.4 2 2 2 C1.67 15.86 1.34 29.72 1 44 C4.63 44 8.26 44 12 44 C11.98259766 41.86917969 11.98259766 41.86917969 11.96484375 39.6953125 C11.95546613 37.83854298 11.9463659 35.98177204 11.9375 34.125 C11.92493164 32.71927734 11.92493164 32.71927734 11.91210938 31.28515625 C11.90888672 30.38925781 11.90566406 29.49335938 11.90234375 28.5703125 C11.89710693 27.74289551 11.89187012 26.91547852 11.88647461 26.06298828 C12 24 12 24 13 22 C15.0625 21.375 15.0625 21.375 17 21 C17.23074219 21.53109375 17.46148437 22.0621875 17.69921875 22.609375 C19.86360565 27.29745413 21.79758453 29.87512696 26 33 C27.0409066 34.64142963 28.04504326 36.30712215 29 38 C29.98095748 39.01868662 30.97702078 40.02351983 32 41 C32.33 41.66 32.66 42.32 33 43 C35.97 43.33 38.94 43.66 42 44 C41.505 23.21 41.505 23.21 41 2 C38.03 1.67 35.06 1.34 32 1 C32 7.93 32 14.86 32 22 C31.01 21.67 30.02 21.34 29 21 C29.33 14.07 29.66 7.14 30 0 C34.62 0 39.24 0 44 0 C44 14.85 44 29.7 44 45 C32 45 32 45 29.140625 43.1640625 C28.51671875 42.32617188 27.8928125 41.48828125 27.25 40.625 C26.54488281 39.72265625 25.83976562 38.8203125 25.11328125 37.890625 C24.41589844 36.93671875 23.71851563 35.9828125 23 35 C21.48410698 33.12100363 19.96352173 31.24577971 18.4375 29.375 C17.303125 27.93125 16.16875 26.4875 15 25 C14.67 31.6 14.34 38.2 14 45 C9.38 45 4.76 45 0 45 C0 30.15 0 15.3 0 0 Z " fill="#2F8B5B" transform="translate(221,325)"/>
<path d="M0 0 C0.66 0 1.32 0 2 0 C2.33 0.66 2.66 1.32 3 2 C4.86309092 2.4279618 4.86309092 2.4279618 7 2.5625 C10.90410959 2.90410959 10.90410959 2.90410959 12 4 C15.24958294 4 18.49915223 3.99667902 21.74873352 3.99327087 C41.74216416 3.97283747 61.73559275 3.95788773 81.72903156 3.94818783 C91.99603512 3.94307142 102.2630308 3.93611581 112.5300293 3.92456055 C121.50864661 3.91446055 130.48725821 3.90811119 139.46588105 3.90591151 C144.19881697 3.9046303 148.93173656 3.90171527 153.66466713 3.89426994 C178.46003949 3.85674578 203.21684231 4.20788028 228 5 C228 5.33 228 5.66 228 6 C199.01081492 6.11672338 170.02166498 6.20493438 141.03229237 6.25906086 C138.35445448 6.2641602 135.67661681 6.2693668 132.9987793 6.2746582 C132.33318375 6.27596976 131.66758821 6.27728131 130.98182311 6.2786326 C120.20219731 6.3003938 109.42270474 6.33981917 98.643158 6.38576398 C87.58370919 6.43250892 76.52433398 6.45991691 65.46479148 6.47044247 C59.25217503 6.47696942 53.03986081 6.4923436 46.82734108 6.52865028 C40.98246799 6.56253236 35.13802227 6.57306854 29.2930603 6.56553841 C27.14559801 6.56691642 24.99812175 6.57689489 22.85074425 6.59602737 C19.92237281 6.62084324 16.99562259 6.61494671 14.06721497 6.60127258 C13.2140977 6.61583679 12.36098044 6.630401 11.48201114 6.64540654 C7.06953662 6.5895729 5.49699293 6.40111412 1.93329906 3.52492046 C0 1 0 1 0 0 Z " fill="#20955B" transform="translate(129,279)"/>
<path d="M0 0 C0 3.10551666 -0.5393715 4.35261084 -2 7 C-2.66 7 -3.32 7 -4 7 C-4 12.94 -4 18.88 -4 25 C-3.34 25.33 -2.68 25.66 -2 26 C-1.67 26.33 -1.34 26.66 -1 27 C1.6905528 25.77992056 1.6905528 25.77992056 4 24 C4.28627309 20.9964046 4.44865755 17.99259893 4.62109375 14.98046875 C4.97928651 12.16293188 5.55716114 10.41252004 7 8 C7.99 8.33 8.98 8.66 10 9 C9.01 10.485 9.01 10.485 8 12 C6.66756138 16.88560828 7.01389603 20.33697328 9 25 C12.51780128 28.34620122 15.14492598 29.22765319 19.875 29.25 C21.25105487 29.18641991 22.62686409 29.10985087 24 29 C24 29.66 24 30.32 24 31 C22.2507786 31.08142927 20.50045458 31.13938541 18.75 31.1875 C17.77546875 31.22230469 16.8009375 31.25710938 15.796875 31.29296875 C12.62531258 30.96075202 11.32959693 30.11327721 9 28 C8.01 28.66 7.02 29.32 6 30 C4.68 29.34 3.36 28.68 2 28 C2.27617533 29.94074861 2.27617533 29.94074861 3 32 C3.99 32.66 4.98 33.32 6 34 C6 34.99 6 35.98 6 37 C11.15946865 38.7041678 15.4425333 39.22225605 20.9375 39.125 C21.96327148 39.11146484 21.96327148 39.11146484 23.00976562 39.09765625 C24.67333287 39.07438958 26.33671631 39.03853167 28 39 C28.33 38.01 28.66 37.02 29 36 C29 36.66 29 37.32 29 38 C29.99 38.495 29.99 38.495 31 39 C23.99540957 42.36166768 13.91487929 42.29744193 6.5 39.9375 C0.96305874 37.36806974 -2.77564238 32.97477036 -5.9375 27.875 C-8.09448682 21.90284275 -8.1109102 14.5015454 -6.203125 8.48828125 C-4.56765908 5.08525408 -2.74641846 2.59689998 0 0 Z " fill="#259358" transform="translate(278,330)"/>
<path d="M0 0 C12.33842777 -0.49353711 12.33842777 -0.49353711 15.4453125 1.82421875 C17 4 17 4 16.625 7.0625 C16.41875 8.031875 16.2125 9.00125 16 10 C16.99 11.485 16.99 11.485 18 13 C17.6758631 16.32240324 17.39223697 17.60776303 15 20 C12.41048555 20.14547834 9.95814609 20.18649052 7.375 20.125 C3.724375 20.063125 3.724375 20.063125 0 20 C0 13.4 0 6.8 0 0 Z M4 3 C4 4.98 4 6.96 4 9 C8.7897321 9.23428313 8.7897321 9.23428313 13 7 C12.67 6.01 12.34 5.02 12 4 C9.29120665 2.64560332 6.99066732 2.93498549 4 3 Z M4 12 C4 13.65 4 15.3 4 17 C6.97 17 9.94 17 13 17 C13.33 15.68 13.66 14.36 14 13 C12.99163938 11.76732652 12.99163938 11.76732652 10.93359375 11.90234375 C9.69802734 11.91974609 9.69802734 11.91974609 8.4375 11.9375 C7.19806641 11.95103516 7.19806641 11.95103516 5.93359375 11.96484375 C4.97646484 11.98224609 4.97646484 11.98224609 4 12 Z " fill="#2B925D" transform="translate(281,393)"/>
<path d="M0 0 C4.85875292 1.21468823 5.72318644 2.68995912 8.75 6.5625 C9.54921875 7.57441406 10.3484375 8.58632813 11.171875 9.62890625 C11.77515625 10.41136719 12.3784375 11.19382812 13 12 C13.33 8.04 13.66 4.08 14 0 C15.32 0 16.64 0 18 0 C18 6.6 18 13.2 18 20 C12.41120602 18.8822412 11.91972815 18.26539871 8.6875 13.9375 C7.99011719 13.01839844 7.29273438 12.09929687 6.57421875 11.15234375 C6.05472656 10.44207031 5.53523438 9.73179687 5 9 C4.67 12.63 4.34 16.26 4 20 C2.68 20 1.36 20 0 20 C0 13.4 0 6.8 0 0 Z " fill="#26935D" transform="translate(330,393)"/>
<path d="M0 0 C12.46024735 -0.41077739 12.46024735 -0.41077739 17 3 C19.70505765 7.05758647 19.74174825 10.24114327 19 15 C17.375 18.0625 17.375 18.0625 14 20 C9.25063605 20.40877878 4.7851261 20.22360402 0 20 C0 13.4 0 6.8 0 0 Z M4 4 C4 8.29 4 12.58 4 17 C8.39509566 17.43089173 10.36843207 17.46051828 14 14.8125 C16.25354166 12.21864195 16.25354166 12.21864195 16 9.375 C14.67522308 6.11545548 14.67522308 6.11545548 12 4 C9.28152187 3.75286562 6.7408369 3.86520474 4 4 Z " fill="#28945C" transform="translate(129,393)"/>
<path d="M0 0 C3.08405878 2.78693966 4.61782605 5.0332045 6.03369141 8.9206543 C8.91248628 15.45199422 12.00564929 20.90311314 18 25 C29.53253019 29.09524524 43.58101292 27.36392187 55.58270264 26.90551758 C60.25466783 26.74988412 64.92745654 26.7153346 69.6015625 26.66992188 C78.73909286 26.56362312 87.86780749 26.32489227 97 26 C97.99 27.98 97.99 27.98 99 30 C97.92173635 31.27513763 96.83714481 32.54492569 95.75 33.8125 C95.14671875 34.52019531 94.5434375 35.22789062 93.921875 35.95703125 C92.07629602 37.91889671 90.20054668 39.45669625 88 41 C88 40.01 88 39.02 88 38 C88.66 38 89.32 38 90 38 C90.185625 37.071875 90.185625 37.071875 90.375 36.125 C91 34 91 34 93 32 C93.99 32 94.98 32 96 32 C96 30.35 96 28.7 96 27 C69.6 27 43.2 27 16 27 C15.67 26.01 15.34 25.02 15 24 C12.39757586 22.35179805 11.13751221 22 8 22 C8.268125 21.319375 8.53625 20.63875 8.8125 19.9375 C9.06324232 16.00920363 7.56812881 14.58613879 5.12890625 11.6484375 C4 10 4 10 4 7 C3.34 7 2.68 7 2 7 C1.34 4.69 0.68 2.38 0 0 Z " fill="#379162" transform="translate(168,112)"/>
<path d="M0 0 C1.32 0 2.64 0 4 0 C4.33 2.64 4.66 5.28 5 8 C5.53109375 7.4225 6.0621875 6.845 6.609375 6.25 C7.66898437 5.13625 7.66898437 5.13625 8.75 4 C9.44609375 3.2575 10.1421875 2.515 10.859375 1.75 C13 0 13 0 17 0 C15.47291037 3.43595166 13.40072955 6.11912454 11 9 C13.20919664 12.75563429 15.56384272 16.38776679 18 20 C15.8125 20.375 15.8125 20.375 13 20 C11.00977164 18.16038352 9.61010101 16.20813852 8 14 C7.01 14.33 6.02 14.66 5 15 C4.67 16.65 4.34 18.3 4 20 C2.68 20 1.36 20 0 20 C0 13.4 0 6.8 0 0 Z " fill="#249A5B" transform="translate(356,393)"/>
<path d="M0 0 C2.5 1 2.5 1 4 2 C3.34 3.32 2.68 4.64 2 6 C1.46375 5.649375 0.9275 5.29875 0.375 4.9375 C-2.80703406 3.68143392 -4.74212952 4.07929747 -8 5 C-10.33296251 7.82717213 -10.33296251 7.82717213 -9.75 11.0625 C-9.2406756 14.099459 -9.2406756 14.099459 -7 16 C-4.67724823 16.40047444 -2.34260643 16.7397104 0 17 C0 14.69 0 12.38 0 10 C1.32 10 2.64 10 4 10 C4.23404491 12.85534791 4.42394557 15.20306041 4 18 C2 20.0625 2 20.0625 -1 21 C-5.88880523 21 -7.97725029 20.73986149 -11.9375 17.875 C-14.43327484 14.39604114 -15 12.27081051 -15 8 C-11.89936314 0.8195778 -7.40226358 -0.92528295 0 0 Z " fill="#29945D" transform="translate(181,393)"/>
<path d="M0 0 C1.32 0 2.64 0 4 0 C5.50310854 3.14435738 7.00196342 6.29072347 8.5 9.4375 C8.92925781 10.33533203 9.35851562 11.23316406 9.80078125 12.15820312 C10.40986328 13.43920898 10.40986328 13.43920898 11.03125 14.74609375 C11.40830078 15.53685303 11.78535156 16.3276123 12.17382812 17.14233398 C13 19 13 19 13 20 C11.35 20 9.7 20 8 20 C7.67 19.01 7.34 18.02 7 17 C3.7 17 0.4 17 -3 17 C-3.33 17.99 -3.66 18.98 -4 20 C-5.32 20 -6.64 20 -8 20 C-7.35014905 15.28629244 -5.48438608 11.42313556 -3.4375 7.1875 C-2.9434668 6.14819336 -2.9434668 6.14819336 -2.43945312 5.08789062 C-1.63127749 3.38955052 -0.81631623 1.69444231 0 0 Z M1 6 C0.34 7.98 -0.32 9.96 -1 12 C0.98 12 2.96 12 5 12 C4.34 10.02 3.68 8.04 3 6 C2.34 6 1.68 6 1 6 Z " fill="#2D935E" transform="translate(231,393)"/>
<path d="M0 0 C1.32 0 2.64 0 4 0 C5.33934716 2.95564708 6.67044247 5.9149378 8 8.875 C8.3815625 9.71675781 8.763125 10.55851562 9.15625 11.42578125 C9.5171875 12.23144531 9.878125 13.03710938 10.25 13.8671875 C10.58515625 14.61081543 10.9203125 15.35444336 11.265625 16.12060547 C12 18 12 18 12 20 C10.68 20 9.36 20 8 20 C7.67 18.68 7.34 17.36 7 16 C3.37 16 -0.26 16 -4 16 C-4.33 17.32 -4.66 18.64 -5 20 C-6.32 20 -7.64 20 -9 20 C-7.55676531 15.26210835 -5.62773267 11.01141849 -3.375 6.625 C-2.88773437 5.66400391 -2.88773437 5.66400391 -2.390625 4.68359375 C-1.59742593 3.12052499 -0.79922969 1.55999378 0 0 Z M1 5 C0.34 7.31 -0.32 9.62 -1 12 C0.98 12 2.96 12 5 12 C4.01 9.69 3.02 7.38 2 5 C1.67 5 1.34 5 1 5 Z " fill="#20975A" transform="translate(312,393)"/>
<path d="M0 0 C5.18316555 1.37201441 8.06405232 4.7037012 11 9 C13.99152257 15.044305 13.82273435 21.41812523 13 28 C10.64612167 34.10906215 7.78794226 37.89403439 2 41 C2.33 39.68 2.66 38.36 3 37 C1.35 35.68 -0.3 34.36 -2 33 C1.625 30 1.625 30 5 30 C5.66 28.35 6.32 26.7 7 25 C7.33 25.99 7.66 26.98 8 28 C8.99 28 9.98 28 11 28 C11 22.72 11 17.44 11 12 C10.01 11.67 9.02 11.34 8 11 C7.731875 10.2575 7.46375 9.515 7.1875 8.75 C5.55554373 4.97073284 3.22315144 3.52246635 0 1 C0 0.67 0 0.34 0 0 Z " fill="#1F9555" transform="translate(308,327)"/>
<path d="M0 0 C5.61 0 11.22 0 17 0 C16.67 1.32 16.34 2.64 16 4 C14.02 4 12.04 4 10 4 C10 9.28 10 14.56 10 20 C8.68 20 7.36 20 6 20 C6 14.72 6 9.44 6 4 C4.02 4 2.04 4 0 4 C0 2.68 0 1.36 0 0 Z " fill="#239357" transform="translate(203,393)"/>
<path d="M0 0 C10.89 0 21.78 0 33 0 C33 0.66 33 1.32 33 2 C11.46808511 2.19148936 11.46808511 2.19148936 1 1 C1 3.97 1 6.94 1 10 C8.26 10 15.52 10 23 10 C22.67 11.65 22.34 13.3 22 15 C21.01 15 20.02 15 19 15 C18.01 17.475 18.01 17.475 17 20 C16.34 20 15.68 20 15 20 C15 20.66 15 21.32 15 22 C13.37897032 23.71108689 11.70496537 25.37253306 10 27 C9.236875 27.763125 8.47375 28.52625 7.6875 29.3125 C7.130625 29.869375 6.57375 30.42625 6 31 C5.34 30.67 4.68 30.34 4 30 C4.97839844 28.93072266 4.97839844 28.93072266 5.9765625 27.83984375 C7.28753906 26.40318359 7.28753906 26.40318359 8.625 24.9375 C9.48351562 23.99777344 10.34203125 23.05804688 11.2265625 22.08984375 C14.20368828 18.77307405 17.09946737 15.38395473 20 12 C13.4 11.67 6.8 11.34 0 11 C0 7.37 0 3.74 0 0 Z " fill="#2D8F5C" transform="translate(132,325)"/>
<path d="M0 0 C0 0.99 0 1.98 0 3 C-0.33 3.33 -0.66 3.66 -1 4 C-1 6.64 -1 9.28 -1 12 C10.55 12 22.1 12 34 12 C34.66 9.03 35.32 6.06 36 3 C29.4 3 22.8 3 16 3 C16 2.67 16 2.34 16 2 C22.93 2 29.86 2 37 2 C37 5.63 37 9.26 37 13 C23.47 13 9.94 13 -4 13 C-4 4 -4 4 -2 1.4375 C-1.34 0.963125 -0.68 0.48875 0 0 Z " fill="#298A58" transform="translate(135,357)"/>
<path d="M0 0 C0.99 0 1.98 0 3 0 C3 5.61 3 11.22 3 17 C6.63 17 10.26 17 14 17 C14 17.99 14 18.98 14 20 C9.38 20 4.76 20 0 20 C0 13.4 0 6.8 0 0 Z " fill="#2C8F5F" transform="translate(250,393)"/>
<path d="M0 0 C15.39811762 -1.2223423 15.39811762 -1.2223423 19.2421875 1.7109375 C20.92991774 4.47721724 22 6.73531506 22 10 C20.68 10.33 19.36 10.66 18 11 C18 10.01 18 9.02 18 8 C17.68578929 5.99690671 17.3548954 3.99628664 17 2 C16.01 2 15.02 2 14 2 C14 2.66 14 3.32 14 4 C13.34 4 12.68 4 12 4 C12 3.34 12 2.68 12 2 C10.02 2 8.04 2 6 2 C6.350625 2.78375 6.70125 3.5675 7.0625 4.375 C7.371875 5.24125 7.68125 6.1075 8 7 C7.67 7.66 7.34 8.32 7 9 C5.68 7.02 4.36 5.04 3 3 C2.67 5.31 2.34 7.62 2 10 C1.67 10 1.34 10 1 10 C0.67 6.7 0.34 3.4 0 0 Z " fill="#2E915E" transform="translate(169,325)"/>
<path d="M0 0 C1.32 0 2.64 0 4 0 C4 6.6 4 13.2 4 20 C2.68 20 1.36 20 0 20 C0 13.4 0 6.8 0 0 Z " fill="#328F5E" transform="translate(193,393)"/>
<path d="M0 0 C1.32 0 2.64 0 4 0 C4 6.6 4 13.2 4 20 C2.68 20 1.36 20 0 20 C0 13.4 0 6.8 0 0 Z " fill="#2C8D5A" transform="translate(155,393)"/>
<path d="M0 0 C0.31453125 0.61488281 0.6290625 1.22976563 0.953125 1.86328125 C1.38109375 2.67152344 1.8090625 3.47976563 2.25 4.3125 C2.66765625 5.11300781 3.0853125 5.91351563 3.515625 6.73828125 C5.08830367 9.13454691 6.70813353 10.33007166 9 12 C9 12.66 9 13.32 9 14 C7.1796875 13.78125 7.1796875 13.78125 5 13 C3.5078125 10.96875 3.5078125 10.96875 2.125 8.5 C-0.20173276 4.6299206 -0.20173276 4.6299206 -4.375 2.9375 C-5.24125 2.958125 -6.1075 2.97875 -7 3 C-7 6.63 -7 10.26 -7 14 C-8.32 13.67 -9.64 13.34 -11 13 C-10.34 13 -9.68 13 -9 13 C-9.33 9.37 -9.66 5.74 -10 2 C-6.3558226 -0.4294516 -4.28758728 -0.16179575 0 0 Z " fill="#2C8C59" transform="translate(348,356)"/>
<path d="M0 0 C0 3.10551666 -0.5393715 4.35261084 -2 7 C-2.66 7 -3.32 7 -4 7 C-4 12.94 -4 18.88 -4 25 C-3.34 25.33 -2.68 25.66 -2 26 C-1.1484375 28.06640625 -1.1484375 28.06640625 -0.375 30.5625 C-0.11460937 31.38878906 0.14578125 32.21507812 0.4140625 33.06640625 C0.70410156 34.02353516 0.70410156 34.02353516 1 35 C-3.34953258 32.06112663 -5.84386 29.12258955 -7 24 C-7.80746466 16.27985003 -7.72998974 9.42266165 -3 3 C-2.02241059 1.97808076 -1.0275801 0.97163735 0 0 Z " fill="#2D8D5B" transform="translate(278,330)"/>
<path d="M0 0 C2.93870996 2.78107801 5.22973282 5.6081128 7.453125 8.984375 C8.071875 9.91894531 8.690625 10.85351562 9.328125 11.81640625 C9.96234375 12.78449219 10.5965625 13.75257812 11.25 14.75 C11.8996875 15.73355469 12.549375 16.71710938 13.21875 17.73046875 C14.81671378 20.15091389 16.41028709 22.57413114 18 25 C17.34 25.66 16.68 26.32 16 27 C15.67 26.01 15.34 25.02 15 24 C12.39757586 22.35179805 11.13751221 22 8 22 C8.268125 21.319375 8.53625 20.63875 8.8125 19.9375 C9.06324232 16.00920363 7.56812881 14.58613879 5.12890625 11.6484375 C4 10 4 10 4 7 C3.34 7 2.68 7 2 7 C1.34 4.69 0.68 2.38 0 0 Z " fill="#298F59" transform="translate(168,112)"/>
<path d="M0 0 C12.49374131 -0.41188158 12.49374131 -0.41188158 17 3 C18.3125 5.6875 18.3125 5.6875 19 8 C16.525 7.505 16.525 7.505 14 7 C14 6.34 14 5.68 14 5 C11.03 4.67 8.06 4.34 5 4 C5 3.67 5 3.34 5 3 C6.65 2.67 8.3 2.34 10 2 C7.03 1.67 4.06 1.34 1 1 C1 7.27 1 13.54 1 20 C0.67 20 0.34 20 0 20 C0 13.4 0 6.8 0 0 Z " fill="#359160" transform="translate(129,393)"/>
<path d="M0 0 C5.61 0 11.22 0 17 0 C16.67 1.32 16.34 2.64 16 4 C14.02 4 12.04 4 10 4 C10.33 3.34 10.66 2.68 11 2 C8.03 1.67 5.06 1.34 2 1 C2 1.66 2 2.32 2 3 C3.65 3 5.3 3 7 3 C7 8.61 7 14.22 7 20 C6.67 20 6.34 20 6 20 C6 14.72 6 9.44 6 4 C4.02 4 2.04 4 0 4 C0 2.68 0 1.36 0 0 Z " fill="#368C60" transform="translate(203,393)"/>
<path d="M0 0 C0.66 0.33 1.32 0.66 2 1 C-3.28 6.28 -8.56 11.56 -14 17 C-14.66 16.34 -15.32 15.68 -16 15 C-14.66666667 13.66666667 -13.33333333 12.33333333 -12 11 C-11.731875 10.01 -11.46375 9.02 -11.1875 8 C-10 5 -10 5 -7.6875 3.8125 C-6.800625 3.544375 -5.91375 3.27625 -5 3 C-4.113125 2.443125 -3.22625 1.88625 -2.3125 1.3125 C-1.1678125 0.6628125 -1.1678125 0.6628125 0 0 Z " fill="#24955A" transform="translate(275,201)"/>
<path d="M0 0 C4.29 0 8.58 0 13 0 C13.33 0.66 13.66 1.32 14 2 C10.04 1.67 6.08 1.34 2 1 C2 4.96 2 8.92 2 13 C4.97 13 7.94 13 11 13 C7.05555556 15.62962963 7.05555556 15.62962963 4 16 C2.68 15.34 1.36 14.68 0 14 C0 9.38 0 4.76 0 0 Z " fill="#2E8C59" transform="translate(339,335)"/>
<path d="M0 0 C1.98 0.99 1.98 0.99 4 2 C4 5.01853795 3.85049285 7.77081079 3.5 10.75 C3.4071875 11.54921875 3.314375 12.3484375 3.21875 13.171875 C3.1465625 13.77515625 3.074375 14.3784375 3 15 C2.01 15 1.02 15 0 15 C0 10.05 0 5.1 0 0 Z " fill="#179D59" transform="translate(331,395)"/>
<path d="M0 0 C1.32 0 2.64 0 4 0 C4.33 1.65 4.66 3.3 5 5 C3.68 5 2.36 5 1 5 C0.34 7.31 -0.32 9.62 -1 12 C0.32 12.33 1.64 12.66 3 13 C1.35 13 -0.3 13 -2 13 C-1.979375 12.236875 -1.95875 11.47375 -1.9375 10.6875 C-1.87057159 7.89814214 -1.87057159 7.89814214 -3 5 C-1.8125 2.3125 -1.8125 2.3125 0 0 Z " fill="#31935F" transform="translate(312,393)"/>
<path d="M0 0 C5.18316555 1.37201441 8.06405232 4.7037012 11 9 C13.14014896 13.16577489 13.21183549 16.66680119 13.125 21.3125 C13.10695313 22.56675781 13.08890625 23.82101562 13.0703125 25.11328125 C13.04710937 26.06589844 13.02390625 27.01851563 13 28 C12.67 28 12.34 28 12 28 C11.67 22.72 11.34 17.44 11 12 C10.01 11.67 9.02 11.34 8 11 C7.731875 10.2575 7.46375 9.515 7.1875 8.75 C5.55554373 4.97073284 3.22315144 3.52246635 0 1 C0 0.67 0 0.34 0 0 Z " fill="#338B5E" transform="translate(308,327)"/>
<path d="M0 0 C-1.75 4.875 -1.75 4.875 -4 6 C-3.67 4.68 -3.34 3.36 -3 2 C-6.63 2.33 -10.26 2.66 -14 3 C-14.33 4.32 -14.66 5.64 -15 7 C-15.66 6.67 -16.32 6.34 -17 6 C-13.80148165 -2.0804674 -7.78161925 -0.60723618 0 0 Z " fill="#338E5F" transform="translate(219,325)"/>
<path d="M0 0 C3.42931954 3.7559214 4.56429083 8.23466745 6 13 C4.68 13 3.36 13 2 13 C1.67 11.68 1.34 10.36 1 9 C-2.63 9 -6.26 9 -10 9 C-10 8.67 -10 8.34 -10 8 C-6.04 8 -2.08 8 2 8 C1.34 6.68 0.68 5.36 0 4 C0 2.68 0 1.36 0 0 Z " fill="#30905F" transform="translate(318,400)"/>
<path d="M0 0 C0 0.99 0 1.98 0 3 C-2.97 2.67 -5.94 2.34 -9 2 C-9 4.64 -9 7.28 -9 10 C-9.66 10 -10.32 10 -11 10 C-12.125 3.375 -12.125 3.375 -11 0 C-9.54263913 -0.19491452 -8.08405407 -0.38069358 -6.625 -0.5625 C-5.81289063 -0.66691406 -5.00078125 -0.77132813 -4.1640625 -0.87890625 C-2 -1 -2 -1 0 0 Z " fill="#1F9559" transform="translate(293,402)"/>
<path d="M0 0 C1.21429688 -0.01417969 2.42859375 -0.02835937 3.6796875 -0.04296875 C6.96844421 0.17702745 9.17865948 0.77034382 12.125 2.1875 C12.125 2.5175 12.125 2.8475 12.125 3.1875 C9.155 3.1875 6.185 3.1875 3.125 3.1875 C3.125 2.5275 3.125 1.8675 3.125 1.1875 C1.145 1.1875 -0.835 1.1875 -2.875 1.1875 C-3.205 1.8475 -3.535 2.5075 -3.875 3.1875 C-6.515 3.1875 -9.155 3.1875 -11.875 3.1875 C-8.33610273 -0.35139727 -4.78042995 0.02526654 0 0 Z " fill="#2A8F5C" transform="translate(295.875,323.8125)"/>
<path d="M0 0 C0.185625 0.9590625 0.185625 0.9590625 0.375 1.9375 C0.684375 2.9584375 0.684375 2.9584375 1 4 C3.6821281 5.34106405 5.88398032 5.21450419 8.8828125 5.31640625 C10.04941406 5.35830078 11.21601563 5.40019531 12.41796875 5.44335938 C13.64128906 5.48267578 14.86460937 5.52199219 16.125 5.5625 C17.35605469 5.60568359 18.58710938 5.64886719 19.85546875 5.69335938 C22.90352853 5.79968704 25.9516719 5.90171781 29 6 C29 6.33 29 6.66 29 7 C25.06734104 7.04947698 21.13480286 7.08575578 17.2019043 7.10986328 C15.20680382 7.12485495 13.21179054 7.15026731 11.21679688 7.17578125 C9.96318359 7.18222656 8.70957031 7.18867188 7.41796875 7.1953125 C6.26063232 7.20578613 5.1032959 7.21625977 3.91088867 7.22705078 C1 7 1 7 -2 5 C-1.125 1.125 -1.125 1.125 0 0 Z " fill="#2B885A" transform="translate(235,221)"/>
<path d="M0 0 C3.83736322 0.95934081 4.59660228 1.23609263 7 4 C6.67 4.66 6.34 5.32 6 6 C4.35 4.68 2.7 3.36 1 2 C1 6.95 1 11.9 1 17 C1.99 17 2.98 17 4 17 C4 17.99 4 18.98 4 20 C2.68 20 1.36 20 0 20 C0 13.4 0 6.8 0 0 Z " fill="#2D9261" transform="translate(330,393)"/>
<path d="M0 0 C0.66 0 1.32 0 2 0 C2.33 2.31 2.66 4.62 3 7 C1.02 7.33 -0.96 7.66 -3 8 C-3 8.99 -3 9.98 -3 11 C-3.99 10.67 -4.98 10.34 -6 10 C-5.18957164 8.51969728 -4.37659652 7.04078858 -3.5625 5.5625 C-2.88380859 4.32693359 -2.88380859 4.32693359 -2.19140625 3.06640625 C-1 1 -1 1 0 0 Z " fill="#219957" transform="translate(229,400)"/>
<path d="M0 0 C1.90845703 0.15275391 1.90845703 0.15275391 3.85546875 0.30859375 C4.83128906 0.39238281 5.80710938 0.47617188 6.8125 0.5625 C3.18247711 4.19252289 -1.67594956 3.61807854 -6.5625 3.625 C-8.10422526 3.60908248 -9.6459364 3.58991912 -11.1875 3.5625 C-10.8575 2.5725 -10.5275 1.5825 -10.1875 0.5625 C-6.51762779 -0.66079074 -3.84782178 -0.31771006 0 0 Z " fill="#259257" transform="translate(142.1875,80.4375)"/>
<path d="M0 0 C-2.97 3.3 -5.94 6.6 -9 10 C-9 7 -9 7 -8 4 C-8.66 4 -9.32 4 -10 4 C-9.25 2.0625 -9.25 2.0625 -8 0 C-4.77235957 -1.39864419 -3.60022643 -0.90005661 0 0 Z " fill="#269255" transform="translate(160,348)"/>
<path d="M0 0 C1.12894876 0.93274109 2.25300876 1.87140122 3.375 2.8125 C4.00148438 3.33457031 4.62796875 3.85664063 5.2734375 4.39453125 C7 6 7 6 9 9 C8.34 9 7.68 9 7 9 C6.938125 9.5775 6.87625 10.155 6.8125 10.75 C5.67972699 13.88690987 3.65802405 15.09167504 1 17 C1.56371414 13.73045798 2.49962266 12.17424117 5 10 C3.75023244 6.34683329 3.32901247 5.21934164 0 3 C0 2.01 0 1.02 0 0 Z " fill="#289B5F" transform="translate(276,184)"/>
<path d="M0 0 C0.99 0.33 1.98 0.66 3 1 C0.75233212 4.43065098 -1.51306576 5.92444391 -5 8 C-5.86625 8.886875 -6.7325 9.77375 -7.625 10.6875 C-10 13 -10 13 -13 13 C-8.71 8.71 -4.42 4.42 0 0 Z " fill="#2A935C" transform="translate(249,207)"/>
<path d="M0 0 C4.29 0 8.58 0 13 0 C13 0.33 13 0.66 13 1 C9.04 1 5.08 1 1 1 C1.33 2.65 1.66 4.3 2 6 C2.66 4.68 3.32 3.36 4 2 C4 4.31 4 6.62 4 9 C3.01 9 2.02 9 1 9 C0.67 9.99 0.34 10.98 0 12 C0 8.04 0 4.08 0 0 Z " fill="#388E61" transform="translate(281,393)"/>
<path d="M0 0 C0.99 0 1.98 0 3 0 C3 5.61 3 11.22 3 17 C2.01 16.34 1.02 15.68 0 15 C-0.22137393 12.37302936 -0.28162025 9.99106036 -0.1875 7.375 C-0.17396484 6.66859375 -0.16042969 5.9621875 -0.14648438 5.234375 C-0.1111104 3.48925872 -0.05730221 1.74453392 0 0 Z " fill="#3A8F64" transform="translate(250,393)"/>
<path d="M0 0 C0.99 0.66 1.98 1.32 3 2 C3.39507893 6.34586828 3.45331002 8.32003497 1 12 C-1.625 12.1875 -1.625 12.1875 -4 12 C-2.9790625 10.948125 -2.9790625 10.948125 -1.9375 9.875 C0.35941298 7.12390948 0.35941298 7.12390948 -0.3125 3.75 C-0.539375 2.8425 -0.76625 1.935 -1 1 C-0.67 0.67 -0.34 0.34 0 0 Z " fill="#1F9A5A" transform="translate(145,399)"/>
<path d="M0 0 C1.32 0.33 2.64 0.66 4 1 C0.37 4.63 -3.26 8.26 -7 12 C-7.33 11.01 -7.66 10.02 -8 9 C-7.34 8.67 -6.68 8.34 -6 8 C-5.5359375 7.01 -5.5359375 7.01 -5.0625 6 C-4 4 -4 4 -1 3 C-0.67 2.01 -0.34 1.02 0 0 Z " fill="#298B57" transform="translate(161,244)"/>
<path d="M0 0 C-3.3 3.3 -6.6 6.6 -10 10 C-10 6.21823079 -8.92444725 4.23032218 -7 1 C-4.05692338 -1.11533632 -3.53327797 -1.17775932 0 0 Z " fill="#2A8D5A" transform="translate(192,218)"/>
<path d="M0 0 C0.33 0 0.66 0 1 0 C1.36795695 3.2828659 1.3231932 4.58663012 -0.75 7.23828125 C-1.4925 7.92277344 -2.235 8.60726562 -3 9.3125 C-3.7425 10.00988281 -4.485 10.70726562 -5.25 11.42578125 C-5.8275 11.94527344 -6.405 12.46476563 -7 13 C-7.33 12.01 -7.66 11.02 -8 10 C-7.34 10 -6.68 10 -6 10 C-5.87625 9.38125 -5.7525 8.7625 -5.625 8.125 C-5 6 -5 6 -3 4 C-2.01 4 -1.02 4 0 4 C0 2.68 0 1.36 0 0 Z " fill="#268F5A" transform="translate(264,140)"/>
<path d="M0 0 C0.66 0.33 1.32 0.66 2 1 C-0.97 5.95 -0.97 5.95 -4 11 C-5.231394 7.30581799 -4.64432764 4.7943739 -4 1 C-2.02 1.495 -2.02 1.495 0 2 C0 1.34 0 0.68 0 0 Z " fill="#269059" transform="translate(213,332)"/>
<path d="M0 0 C-1.36983503 3.16115776 -1.9890638 3.9927092 -5 6 C-6.66666667 6 -8.33333333 6 -10 6 C-9.09650406 4.98808455 -8.17659153 3.99081074 -7.25 3 C-6.48429687 2.1646875 -6.48429687 2.1646875 -5.703125 1.3125 C-4 0 -4 0 0 0 Z " fill="#379163" transform="translate(373,393)"/>
<path d="M0 0 C0.99 0.33 1.98 0.66 3 1 C-0.3 4.3 -3.6 7.6 -7 11 C-7.33 10.34 -7.66 9.68 -8 9 C-7.09696326 6.37298402 -6.48172273 5.2559152 -4 3.9375 C-3.34 3.628125 -2.68 3.31875 -2 3 C-1.34 2.01 -0.68 1.02 0 0 Z " fill="#2D8D5D" transform="translate(225,181)"/>
<path d="M0 0 C3.98069267 2.87494471 6.43571997 5.82117329 9 10 C6.0280615 8.87548273 3.66559313 7.77706209 1 6 C0.3125 2.875 0.3125 2.875 0 0 Z " fill="#278F5B" transform="translate(241,336)"/>
<path d="M0 0 C0.66 0.33 1.32 0.66 2 1 C2 2.66666667 2 4.33333333 2 6 C2.99 6.33 3.98 6.66 5 7 C1.71303767 7.79953138 0.28976808 8.09658936 -3 7 C-2.25 2.25 -2.25 2.25 0 0 Z " fill="#209557" transform="translate(151,256)"/>
<path d="M0 0 C0.33 0 0.66 0 1 0 C1.33 3.96 1.66 7.92 2 12 C1.34 12 0.68 12 0 12 C0 11.34 0 10.68 0 10 C-0.66 10 -1.32 10 -2 10 C-2.33 9.01 -2.66 8.02 -3 7 C-2.34 7 -1.68 7 -1 7 C-1.020625 6.030625 -1.04125 5.06125 -1.0625 4.0625 C-1 1 -1 1 0 0 Z " fill="#169B52" transform="translate(346,401)"/>
<path d="M0 0 C1.33332095 2.6666419 0.67102033 4.16680303 0 7 C-2.31 7.33 -4.62 7.66 -7 8 C-6.02133662 6.85373678 -5.04205413 5.70800212 -4.0625 4.5625 C-3.51722656 3.92441406 -2.97195313 3.28632813 -2.41015625 2.62890625 C-1.63204305 1.73008851 -0.84063472 0.84063472 0 0 Z " fill="#298F5A" transform="translate(328,128)"/>
<path d="M0 0 C0.33 0 0.66 0 1 0 C1 4.29 1 8.58 1 13 C1.99 13.33 2.98 13.66 4 14 C2.35 14.33 0.7 14.66 -1 15 C-0.67 10.05 -0.34 5.1 0 0 Z " fill="#23945C" transform="translate(251,397)"/>
<path d="M0 0 C0.66 0.33 1.32 0.66 2 1 C-0.97 3.97 -3.94 6.94 -7 10 C-7.66 9.34 -8.32 8.68 -9 8 C-6.11887921 5.11887921 -3.20078172 2.52693294 0 0 Z " fill="#2F9060" transform="translate(268,208)"/>
<path d="M0 0 C0.66 0.33 1.32 0.66 2 1 C0.8572081 2.16964602 -0.28931715 3.33564556 -1.4375 4.5 C-2.07558594 5.1496875 -2.71367187 5.799375 -3.37109375 6.46875 C-5 8 -5 8 -6 8 C-6 6.35 -6 4.7 -6 3 C-4.03533587 1.93224776 -2.03144641 0.93446535 0 0 Z " fill="#298E5A" transform="translate(215,192)"/>
<path d="M0 0 C0.33 0.99 0.66 1.98 1 3 C-1.5162178 5.60608273 -4.05134359 7.89381685 -7 10 C-7.66 9.67 -8.32 9.34 -9 9 C-6.03 6.03 -3.06 3.06 0 0 Z " fill="#2E915D" transform="translate(279,177)"/>
<path d="M0 0 C1.32 0.33 2.64 0.66 4 1 C1.69 3.31 -0.62 5.62 -3 8 C-3.33 7.01 -3.66 6.02 -4 5 C-3.67 4.34 -3.34 3.68 -3 3 C-2.01 3 -1.02 3 0 3 C0 2.01 0 1.02 0 0 Z " fill="#2B8E5A" transform="translate(237,168)"/>
<path d="M0 0 C3.93774177 -0.36630156 5.56539771 -0.30233203 8.875 2 C9.926875 2.99 9.926875 2.99 11 4 C10.67 5.32 10.34 6.64 10 8 C9.54625 7.360625 9.0925 6.72125 8.625 6.0625 C7.16078274 3.90297594 7.16078274 3.90297594 5 3 C5 2.34 5 1.68 5 1 C3.35 1 1.7 1 0 1 C0 0.67 0 0.34 0 0 Z " fill="#318B5D" transform="translate(360,81)"/>
<path d="M0 0 C0.66 0.33 1.32 0.66 2 1 C-0.64 3.97 -3.28 6.94 -6 10 C-6.33 9.34 -6.66 8.68 -7 8 C-5.625 6 -5.625 6 -4 4 C-3.34 4 -2.68 4 -2 4 C-1.34 2.68 -0.68 1.36 0 0 Z " fill="#308E5D" transform="translate(167,336)"/>
<path d="M0 0 C1.32 0.33 2.64 0.66 4 1 C4.66 3.97 5.32 6.94 6 10 C3.36335259 7.36335259 1.744776 5.24029829 0 2 C0 1.34 0 0.68 0 0 Z " fill="#2C8F5C" transform="translate(177,334)"/>
<path d="M0 0 C2.64752004 2.57784846 4.94432065 4.91648098 7 8 C5.35 8 3.7 8 2 8 C1.67 7.34 1.34 6.68 1 6 C1.66 6 2.32 6 3 6 C2.2575 5.071875 2.2575 5.071875 1.5 4.125 C0 2 0 2 0 0 Z " fill="#33915F" transform="translate(367,405)"/>
<path d="M0 0 C0.66 0 1.32 0 2 0 C2 1.65 2 3.3 2 5 C2.66 5.33 3.32 5.66 4 6 C3.01 6 2.02 6 1 6 C1 5.34 1 4.68 1 4 C-0.65 3.67 -2.3 3.34 -4 3 C-3.67 2.34 -3.34 1.68 -3 1 C-2.01 1.33 -1.02 1.66 0 2 C0 1.34 0 0.68 0 0 Z " fill="#1A9457" transform="translate(237,404)"/>
<path d="M0 0 C1.37478516 0.01740234 1.37478516 0.01740234 2.77734375 0.03515625 C3.69644531 0.04417969 4.61554688 0.05320312 5.5625 0.0625 C6.27277344 0.07410156 6.98304688 0.08570313 7.71484375 0.09765625 C3.77039931 2.72728588 3.77039931 2.72728588 0.71484375 3.09765625 C-1.53515625 2.16015625 -1.53515625 2.16015625 -3.28515625 1.09765625 C-2.28515625 0.09765625 -2.28515625 0.09765625 0 0 Z " fill="#26995E" transform="translate(342.28515625,347.90234375)"/>
<path d="M0 0 C0.99 0.33 1.98 0.66 3 1 C0.69 3.31 -1.62 5.62 -4 8 C-4.33 7.01 -4.66 6.02 -5 5 C-4.34 4.67 -3.68 4.34 -3 4 C-2.67 3.01 -2.34 2.02 -2 1 C-1.34 0.67 -0.68 0.34 0 0 Z " fill="#2B8B59" transform="translate(253,153)"/>
<path d="M0 0 C0.33 0 0.66 0 1 0 C1 2.97 1 5.94 1 9 C0.01 9 -0.98 9 -2 9 C-1.34 6.03 -0.68 3.06 0 0 Z " fill="#299861" transform="translate(171,361)"/>
<path d="M0 0 C0.66 0.33 1.32 0.66 2 1 C-1.465 3.97 -1.465 3.97 -5 7 C-4.1875 4.0625 -4.1875 4.0625 -3 1 C-2.01 0.67 -1.02 0.34 0 0 Z " fill="#2B8D5B" transform="translate(246,161)"/>
<path d="M0 0 C1.33333333 2.66666667 2.66666667 5.33333333 4 8 C2.68 7.67 1.36 7.34 0 7 C0 6.34 0 5.68 0 5 C-0.66 4.67 -1.32 4.34 -2 4 C-1.34 2.68 -0.68 1.36 0 0 Z " fill="#2B9B62" transform="translate(294,398)"/>
<path d="M0 0 C0.99 0.33 1.98 0.66 3 1 C-0.465 3.97 -0.465 3.97 -4 7 C-4 5.68 -4 4.36 -4 3 C-3.01 2.67 -2.02 2.34 -1 2 C-0.67 1.34 -0.34 0.68 0 0 Z " fill="#2E895D" transform="translate(169,237)"/>
<path d="M0 0 C0.99 0.66 1.98 1.32 3 2 C2.34 2 1.68 2 1 2 C1 2.66 1 3.32 1 4 C-0.65 4 -2.3 4 -4 4 C-3.67 3.01 -3.34 2.02 -3 1 C-2.01 0.67 -1.02 0.34 0 0 Z " fill="#579C79" transform="translate(135,80)"/>
</svg>
